<svg width="18" height="14" viewBox="0 0 18 14" fill="none" xmlns="http://www.w3.org/2000/svg">
<path d="M17.25 6H0.75C0.551088 6 0.360322 6.10536 0.21967 6.29289C0.0790174 6.48043 0 6.73478 0 7C0 7.26522 0.0790174 7.51957 0.21967 7.70711C0.360322 7.89464 0.551088 8 0.75 8H17.25C17.4489 8 17.6397 7.89464 17.7803 7.70711C17.921 7.51957 18 7.26522 18 7C18 6.73478 17.921 6.48043 17.7803 6.29289C17.6397 6.10536 17.4489 6 17.25 6Z" fill="white"/>
<path d="M0.75 2H17.25C17.4489 2 17.6397 1.89464 17.7803 1.70711C17.921 1.51957 18 1.26522 18 1C18 0.734783 17.921 0.48043 17.7803 0.292893C17.6397 0.105357 17.4489 0 17.25 0H0.75C0.551088 0 0.360322 0.105357 0.21967 0.292893C0.0790174 0.48043 0 0.734783 0 1C0 1.26522 0.0790174 1.51957 0.21967 1.70711C0.360322 1.89464 0.551088 2 0.75 2Z" fill="white"/>
<path d="M17.25 12H0.75C0.551088 12 0.360322 12.1054 0.21967 12.2929C0.0790174 12.4804 0 12.7348 0 13C0 13.2652 0.0790174 13.5196 0.21967 13.7071C0.360322 13.8946 0.551088 14 0.75 14H17.25C17.4489 14 17.6397 13.8946 17.7803 13.7071C17.921 13.5196 18 13.2652 18 13C18 12.7348 17.921 12.4804 17.7803 12.2929C17.6397 12.1054 17.4489 12 17.25 12Z" fill="white"/>
</svg>
