<svg width="27" height="27" viewBox="0 0 27 27" fill="none" xmlns="http://www.w3.org/2000/svg">
<path d="M14.6936 13.5L21.6907 6.50286C21.8488 6.3446 21.9375 6.13005 21.9375 5.90637C21.9374 5.68268 21.8485 5.46819 21.6903 5.31002C21.5322 5.15185 21.3177 5.06297 21.094 5.0629C20.8703 5.06283 20.6558 5.15158 20.4975 5.30965L13.5004 12.3068L6.50322 5.30965C6.34495 5.15158 6.1304 5.06283 5.90672 5.0629C5.68304 5.06297 5.46854 5.15185 5.31037 5.31002C5.15221 5.46819 5.06332 5.68268 5.06325 5.90637C5.06318 6.13005 5.15193 6.3446 5.31 6.50286L12.3071 13.5L5.31 20.4971C5.23157 20.5755 5.16934 20.6685 5.12688 20.7709C5.08441 20.8733 5.06253 20.983 5.0625 21.0939C5.06247 21.2047 5.08427 21.3145 5.12667 21.4169C5.16908 21.5193 5.23124 21.6124 5.30962 21.6907C5.388 21.7691 5.48106 21.8313 5.58347 21.8737C5.68589 21.9161 5.79565 21.9379 5.9065 21.9379C6.01734 21.9378 6.12709 21.916 6.22948 21.8735C6.33187 21.831 6.42489 21.7688 6.50322 21.6904L13.5004 14.6932L20.4975 21.6904C20.6558 21.8484 20.8703 21.9372 21.094 21.9371C21.3177 21.937 21.5322 21.8482 21.6903 21.69C21.8485 21.5318 21.9374 21.3173 21.9375 21.0936C21.9375 20.87 21.8488 20.6554 21.6907 20.4971L14.6936 13.5Z" fill="white"/>
</svg>
