<svg width="36" height="36" viewBox="0 0 36 36" fill="none" xmlns="http://www.w3.org/2000/svg">
<g clip-path="url(#clip0)">
<path d="M0 0L10.3392 8.06322V10.5352L0 2.58965V6.92534L10.3392 14.7139V17.3035L0 9.51499V13.4387L6.61707 18.4414V20.6583L0 15.7929V20.1482L6.75492 25.249L6.8337 27.5444L0 22.5809V26.7597L12.1313 36H36V0H0ZM34.326 34.2343H15.1838L7.52298 27.8583H17.0547L22.6871 32.2921L25.8578 30.036V26.1711C25.1094 26.1711 24.4004 26.7989 24.4004 26.7989H18.5317C19.5361 26.7989 21.1707 24.6213 21.1707 24.6213C21.8403 25.2883 23.081 25.249 23.081 25.249C23.8687 24.4643 25.0306 23.9738 25.0306 23.9738C27.0985 23.9738 27.6302 21.5019 27.6302 21.5019L24.7155 19.285H29.7374L22.0372 13.2425V10.2997L10.9103 1.92262H34.326V34.2343ZM13.8446 11.7515H19.1619V15.7929L13.8446 11.7515Z" fill="white"/>
<path d="M32.5733 2.94278V8.45559H26.8818V2.94278L28.7724 4.92425L29.7177 2.94278L30.8993 4.92425L32.5733 2.94278Z" fill="white"/>
<path d="M9.03939 36H0V28.8981L9.03939 36Z" fill="white"/>
</g>
<defs>
<clipPath id="clip0">
<rect width="36" height="36" fill="white"/>
</clipPath>
</defs>
</svg>
