<svg width="20" height="20" viewBox="0 0 20 20" fill="none" xmlns="http://www.w3.org/2000/svg">
<g opacity="0.5">
<path d="M8.9587 18.3333H4.09787C3.13911 18.3324 2.36212 17.5554 2.3612 16.5967V8.51335C1.68055 8.03033 1.46862 7.11462 1.86787 6.38168C2.61787 5.04168 3.38287 3.72085 4.13537 2.45501C4.43717 1.96085 4.97635 1.66151 5.55537 1.66661C5.9083 1.6702 6.25161 1.78221 6.5387 1.98751L6.5587 2.00001C6.90204 2.20001 10.2187 4.17418 12.8845 5.76001L15.2504 7.16668L15.3587 7.23085C17.207 8.32335 17.6229 8.57168 17.6462 8.58751C18.3266 9.06926 18.5359 9.98566 18.132 10.715C17.3962 12.0292 16.632 13.35 15.8645 14.6417C15.5666 15.1305 15.037 15.4303 14.4645 15.4342C14.3524 15.4342 14.2406 15.4217 14.1312 15.3967C14.0345 15.4542 13.5012 15.7967 12.8254 16.23C11.6229 17.0008 9.97954 18.055 9.78953 18.1525C9.53318 18.2845 9.2467 18.3468 8.9587 18.3333ZM3.75037 10.8583V16.5967C3.75037 16.7886 3.90595 16.9442 4.09787 16.9442H7.2837C6.07287 14.9 4.88454 12.8517 3.75037 10.8583ZM4.88204 10.025C5.21537 10.5975 8.81203 16.8017 8.84203 16.8433C8.88941 16.9049 8.9627 16.9409 9.04037 16.9408C9.08133 16.9408 9.12168 16.9309 9.15787 16.9117C9.27037 16.8483 12.6529 14.675 12.6862 14.6533C12.4245 14.4992 10.5312 13.3708 8.5262 12.1767L4.86537 10L4.8712 10.0092L4.87954 10.0233V10.0283L4.88204 10.025ZM5.27704 3.25001C4.6037 4.33335 3.09704 7.02335 3.07704 7.07251C3.02763 7.19055 3.07146 7.327 3.18037 7.39418C3.2912 7.46001 14.3087 14.0242 14.4137 14.0408C14.427 14.0418 14.4404 14.0418 14.4537 14.0408C14.5442 14.0412 14.6283 13.9941 14.6754 13.9167C15.3537 12.7775 16.9162 10.0358 16.9204 10.0275C16.9686 9.90898 16.9247 9.77292 16.8162 9.70501C16.7104 9.64168 5.7137 3.10668 5.64287 3.07585C5.61068 3.06229 5.57613 3.05521 5.5412 3.05501C5.45345 3.05549 5.37177 3.09992 5.3237 3.17335L5.31787 3.18335L5.3112 3.19335L5.3012 3.21001V3.21418L5.2887 3.23418L5.2762 3.25001H5.27704ZM6.40454 7.82501C5.63832 7.82455 5.01734 7.20344 5.01704 6.43723C5.01673 5.67102 5.63722 5.04942 6.40343 5.04835C7.16964 5.04728 7.79186 5.66714 7.7937 6.43335C7.79278 7.20018 7.17137 7.82159 6.40454 7.82251V7.82501Z" fill="white"/>
</g>
</svg>
