<svg width="18" height="18" viewBox="0 0 18 18" fill="none" xmlns="http://www.w3.org/2000/svg">
<path fill-rule="evenodd" clip-rule="evenodd" d="M15.2335 2.7041C15.0533 2.17266 14.5489 1.79434 13.9544 1.79434H4.04618C3.45169 1.79434 2.95627 2.17266 2.76712 2.7041L0.893555 8.09959V15.3056C0.893555 15.801 1.29889 16.2063 1.7943 16.2063H2.69506C3.19047 16.2063 3.59581 15.801 3.59581 15.3056V14.4048H14.4048V15.3056C14.4048 15.801 14.8101 16.2063 15.3056 16.2063H16.2063C16.7017 16.2063 17.1071 15.801 17.1071 15.3056V8.09959L15.2335 2.7041ZM4.04607 11.7026C3.29844 11.7026 2.69494 11.0991 2.69494 10.3515C2.69494 9.60387 3.29844 9.00037 4.04607 9.00037C4.79369 9.00037 5.39719 9.60387 5.39719 10.3515C5.39719 11.0991 4.79369 11.7026 4.04607 11.7026ZM13.9544 11.7026C13.2067 11.7026 12.6032 11.0991 12.6032 10.3515C12.6032 9.60387 13.2067 9.00037 13.9544 9.00037C14.702 9.00037 15.3055 9.60387 15.3055 10.3515C15.3055 11.0991 14.702 11.7026 13.9544 11.7026ZM2.69494 7.19884L4.04607 3.14547H13.9543L15.3054 7.19884H2.69494Z" fill="white"/>
</svg>
