<svg width="18" height="18" viewBox="0 0 18 18" fill="none" xmlns="http://www.w3.org/2000/svg">
<path d="M16.875 6.18782C16.8011 6.18782 16.728 6.20237 16.6597 6.23063C16.5915 6.2589 16.5295 6.30033 16.4772 6.35257C16.425 6.4048 16.3836 6.46681 16.3553 6.53506C16.327 6.60331 16.3125 6.67645 16.3125 6.75032V11.2503C16.3125 11.3995 16.3718 11.5426 16.4773 11.6481C16.5827 11.7536 16.7258 11.8128 16.875 11.8128C17.0242 11.8128 17.1673 11.7536 17.2727 11.6481C17.3782 11.5426 17.4375 11.3995 17.4375 11.2503V6.75032C17.4375 6.67645 17.423 6.60331 17.3947 6.53506C17.3664 6.46681 17.325 6.4048 17.2728 6.35257C17.2205 6.30033 17.1585 6.2589 17.0903 6.23063C17.022 6.20237 16.9489 6.18782 16.875 6.18782Z" fill="#828282"/>
<path d="M13.5 3.37532H2.8125C2.3651 3.37583 1.93618 3.55379 1.61982 3.87014C1.30347 4.1865 1.12551 4.61542 1.125 5.06282V12.9378C1.12551 13.3852 1.30347 13.8141 1.61982 14.1305C1.93618 14.4469 2.3651 14.6248 2.8125 14.6253H13.5C13.9474 14.6248 14.3763 14.4469 14.6927 14.1305C15.009 13.8141 15.187 13.3852 15.1875 12.9378V5.06282C15.187 4.61542 15.009 4.1865 14.6927 3.87014C14.3763 3.55379 13.9474 3.37583 13.5 3.37532ZM7.59375 6.18751C7.59375 6.03833 7.65301 5.89525 7.7585 5.78976C7.86399 5.68427 8.00707 5.62501 8.15625 5.62501C8.30543 5.62501 8.44851 5.68427 8.554 5.78976C8.65949 5.89525 8.71875 6.03833 8.71875 6.18751V9.00001C8.71875 9.1492 8.65949 9.29227 8.554 9.39776C8.44851 9.50325 8.30543 9.56251 8.15625 9.56251C8.00707 9.56251 7.86399 9.50325 7.7585 9.39776C7.65301 9.29227 7.59375 9.1492 7.59375 9.00001V6.18751ZM8.15625 12.375C7.98937 12.375 7.82624 12.3255 7.68749 12.2328C7.54873 12.1401 7.44059 12.0083 7.37673 11.8541C7.31287 11.7 7.29616 11.5303 7.32871 11.3667C7.36127 11.203 7.44163 11.0526 7.55963 10.9346C7.67763 10.8166 7.82797 10.7363 7.99164 10.7037C8.15531 10.6712 8.32496 10.6879 8.47914 10.7517C8.63331 10.8156 8.76509 10.9237 8.8578 11.0625C8.95052 11.2013 9 11.3644 9 11.5313C9 11.755 8.91111 11.9696 8.75287 12.1279C8.59464 12.2861 8.38003 12.375 8.15625 12.375Z" fill="#828282"/>
</svg>
