<svg width="18" height="18" fill="none" xmlns="http://www.w3.org/2000/svg"><path fill-rule="evenodd" clip-rule="evenodd" d="M15.233 2.704a1.346 1.346 0 00-1.279-.91H4.046c-.594 0-1.09.379-1.279.91L.894 8.1v7.206c0 .495.405.9.9.9h.901c.495 0 .9-.405.9-.9v-.901h10.81v.9c0 .496.405.901.9.901h.901a.903.903 0 00.901-.9V8.1l-1.873-5.396zM4.046 11.703a1.35 1.35 0 01-1.351-1.351A1.35 1.35 0 014.046 9a1.35 1.35 0 011.351 1.352 1.35 1.35 0 01-1.35 1.35zm9.908 0a1.35 1.35 0 01-1.35-1.351A1.35 1.35 0 0113.953 9a1.35 1.35 0 011.351 1.352 1.35 1.35 0 01-1.35 1.35zM2.694 7.199l1.352-4.053h9.908l1.351 4.053H2.695z" fill="#fff"/></svg>