<svg width="66" height="42" viewBox="0 0 66 42" fill="none" xmlns="http://www.w3.org/2000/svg">
<path fill-rule="evenodd" clip-rule="evenodd" d="M33 0C14.7684 0 0 9.40276 0 21C0 32.5972 14.7684 42 33 42C51.2316 42 66 32.5972 66 21C66 9.40276 51.2316 0 33 0ZM8.54369 12.6945C9.45908 16.4891 16.0499 19.6437 24.9903 20.8324C24.9903 21.0152 24.9903 21.1829 24.9903 21.3657C24.9903 30.3723 27.5839 37.9158 31.0777 39.9731C16.5687 39.2874 5.14147 31.2866 5.14147 21.5334C5.14147 18.3331 6.37725 15.3157 8.54369 12.6945ZM28.2857 21.1829C29.8114 21.3048 31.3828 21.3657 33 21.3657C34.6172 21.3657 36.1886 21.3048 37.7143 21.1829C37.5007 27.8578 35.4716 33.0849 33 33.0849C30.5284 33.0849 28.4993 27.8578 28.2857 21.1829ZM40.9945 20.8324C50.1332 19.6132 56.8308 16.3367 57.5021 12.4354C59.8058 15.1176 61.1179 18.2264 61.1179 21.5334C61.1179 31.3476 49.5229 39.394 34.8766 39.9884C38.3856 37.9615 40.9792 30.3875 40.9792 21.381C40.9945 21.1981 40.9945 21.0152 40.9945 20.8324ZM35.853 3.4746C44.9917 3.93179 51.9944 6.59869 51.9944 9.79898C51.9944 12.4202 47.3259 14.6756 40.6283 15.6662C39.9112 10.0581 38.1415 5.56241 35.853 3.4746ZM37.5159 16.0319C36.0666 16.1538 34.5562 16.2148 33 16.2148C31.4438 16.2148 29.9334 16.1538 28.484 16.0319C29.0943 10.7438 30.8793 6.90348 33 6.90348C35.1207 6.90348 36.9057 10.7438 37.5159 16.0319ZM25.3564 15.6662C18.6588 14.6756 13.9903 12.4202 13.9903 9.79898C13.9903 8.71698 14.7836 7.69594 16.2025 6.79681C17.8502 5.95864 19.6505 5.25762 21.5576 4.67852C24.0139 4.0537 26.9431 3.627 30.1318 3.45936C27.8585 5.56241 26.0888 10.0581 25.3564 15.6662Z" fill="#2C2C2C"/>
</svg>
