<svg width="239" height="43" viewBox="0 0 239 43" fill="none" xmlns="http://www.w3.org/2000/svg">
<path fill-rule="evenodd" clip-rule="evenodd" d="M228.831 20.4187H211.346C211.602 18.2307 213.133 16.0426 215.941 16.0426C218.238 16.0426 236.616 16.0426 236.616 16.0426V11.7953H215.048C206.497 11.7953 202.923 18.3594 202.923 24.666C202.923 24.666 226.151 24.666 227.044 24.666C227.81 24.666 229.852 24.7947 229.852 26.854C229.852 28.9133 228.193 29.042 225.258 29.1707H200.115V11.6666H192.713V29.042H178.547C174.335 29.042 173.825 25.8243 173.825 24.1512C173.825 22.3493 173.825 11.6666 173.825 11.6666H160.296L149.321 19.0029L139.366 11.6666H110.523C101.972 11.6666 96.7391 17.7158 95.9733 22.9928H101.972C99.5468 24.666 97.8877 26.854 96.9943 29.042H80.1478C75.9362 29.042 75.4257 25.8243 75.4257 24.1512C75.4257 22.3493 75.4257 11.6666 75.4257 11.6666H68.0234V23.5076C68.0234 31.6161 73.6389 33.2893 76.4467 33.2893C80.4031 33.2893 135.537 33.2893 135.537 33.2893L146.64 25.8243L156.723 33.2893H168.337L152.766 21.7057L165.529 13.0824V24.5373C165.529 31.8735 172.676 33.2893 174.59 33.2893H228.576C231.256 33.2893 238.658 32.9032 238.658 26.9827C238.658 21.0622 233.426 20.4187 228.831 20.4187ZM134.516 29.042H106.694C106.949 26.854 109.374 24.666 112.054 24.666H128.518V20.4187H106.056C106.311 18.2307 108.736 16.0426 111.416 16.0426C113.713 16.0426 130.177 16.0426 130.177 16.0426V13.5972L143.195 23.3789L134.516 29.042Z" fill="#F00759"/>
<path fill-rule="evenodd" clip-rule="evenodd" d="M29.3538 42.8137C39.0533 42.8137 47.7318 39.3386 52.9644 34.0616H48.1147C43.5202 37.9228 36.8837 40.3683 29.3538 40.3683C15.315 40.3683 4.33925 31.8736 4.33925 21.4483C4.33925 9.47858 15.315 2.52839 29.3538 2.52839C30.2472 2.52839 31.0129 2.91452 30.3748 3.68676C27.4394 7.29056 19.1438 18.6168 17.6123 21.0622C14.6769 25.9531 14.6769 32.0023 22.0791 32.3884H52.9644C54.4959 32.3884 54.8788 31.6162 55.5169 30.844C57.5589 28.0124 58.5799 24.7947 58.5799 21.3196C58.5799 12.3101 52.3263 5.61736 43.1373 2.39969L41.7334 4.5877C49.3909 7.41926 54.4959 13.2111 54.4959 21.4483C54.4959 22.8641 54.2407 24.2799 53.8578 25.567C53.4749 26.7253 52.8368 27.755 51.5605 27.755H27.0565C23.8659 27.755 25.1421 24.5373 26.2908 22.8641C27.9499 19.7751 37.2665 7.03315 39.4362 4.71642C39.9467 3.81547 41.6058 2.01356 39.4362 1.37003C36.2455 0.597783 32.9273 0.21167 29.3538 0.21167C13.1454 0.21167 0 8.57763 0 21.4483C0 34.5765 13.1454 42.8137 29.3538 42.8137Z" fill="#F00759"/>
</svg>
