<svg width="257" height="33" viewBox="0 0 257 33" fill="none" xmlns="http://www.w3.org/2000/svg">
<g clip-path="url(#clip0)">
<path fill-rule="evenodd" clip-rule="evenodd" d="M239.982 8.35356H229.439C227.647 8.49163 227.165 8.90586 227.165 11.046V16.9142H239.913V8.35356H239.982ZM245.564 3.659V29.41H239.982V21.954H227.234V29.341H221.652V9.18201C221.652 5.59205 223.099 3.659 227.234 3.659H245.564ZM216.07 9.18201V23.1276C216.07 27.546 213.59 29.341 210.489 29.341H192.917V3.659H210.489C215.243 3.659 216.07 6.69665 216.07 9.18201ZM210.42 10.7699C210.42 9.38912 209.593 8.4226 208.077 8.4226H198.429V24.5084H208.008C210.213 24.3703 210.351 23.0586 210.351 22.023V10.7699H210.42ZM79.1465 3.659H84.7282V13.8075H97.2009V3.659H102.783V29.41H97.2009V18.8473H84.7282V29.341H79.1465V3.659ZM112.361 3.659L119.39 14.1527L126.281 3.659H133.034L122.146 20.09V29.341H116.565V20.09L105.539 3.659H112.361ZM164.319 3.659H182.305C184.854 3.659 187.335 4.00418 187.266 9.18201V29.341H181.684V11.046C181.684 8.83682 181.409 8.35356 179.686 8.35356H169.901V29.341H164.319V3.659ZM256.658 3.659V29.41H251.077V3.659H256.658ZM135.79 29.341H153.776C157.359 29.341 158.806 28.3054 158.737 23.1276V3.659H153.156V22.023C153.156 24.2322 152.88 24.5084 151.157 24.5084H141.372V3.659H135.79V29.341Z" fill="#2C2C2C"/>
<path fill-rule="evenodd" clip-rule="evenodd" d="M39.7299 20.2971C40.2123 22.8515 38.903 24.9916 37.8004 26.9937C36.5601 28.9268 34.5617 30.5147 32.0809 30.3075C26.6371 30.2385 21.2621 29.4101 16.3006 27.8912C16.0939 27.8222 15.8182 27.6841 15.7493 27.477C15.6804 27.2009 15.8182 26.9247 16.0249 26.7176C20.573 23.0586 25.948 21.3327 31.254 19.5377C33.2524 18.9854 35.3886 18.364 37.5937 18.6402C38.4895 18.7783 39.3854 19.4686 39.7299 20.2971ZM58.4045 9.38914C60.9542 11.4603 63.2282 14.3598 62.4702 17.8117C61.2298 22.9205 55.6481 25.613 51.2379 27.3389C48.826 28.1674 46.4142 28.9958 43.7956 29.2029C43.6578 29.2029 43.3821 29.2029 43.3132 28.9958L43.3821 28.7197C47.1033 24.5084 49.9286 19.8138 52.4093 14.9812C53.5808 12.841 54.6144 10.6318 55.5792 8.42261C55.717 8.28454 55.8548 8.14646 56.0616 8.14646C57.0263 8.2155 57.6465 8.90588 58.4045 9.38914ZM22.6403 4.0042L22.5714 4.28035C17.1964 10.4247 13.6131 17.5356 10.2365 24.6465C9.54742 25.2678 8.92723 24.4393 8.37595 24.1632C5.34392 22.2301 2.65643 19.0544 3.41444 15.2573C4.65482 10.3557 9.75415 7.6632 13.9576 5.93726C16.4384 4.97073 19.057 4.21132 21.8134 3.79709C22.089 3.79709 22.5025 3.72805 22.6403 4.0042ZM49.3773 4.97073C49.6529 5.1088 50.0664 5.17784 50.2042 5.52303C50.342 5.86822 50.0664 6.07533 49.8597 6.35148C45.6562 9.66529 40.8325 11.5293 35.871 13.1172C33.3213 13.7385 30.7716 14.8431 28.0152 14.2218C27.3262 14.0837 26.7749 13.6004 26.3614 12.9791C25.6723 11.046 26.6371 9.04395 27.3951 7.31801C28.4976 5.17784 30.4271 2.69249 33.0457 2.69249C38.8341 2.69249 44.278 3.52094 49.3773 4.97073ZM56.475 5.17784C60.8163 7.59416 65.7778 11.7364 65.2266 17.3285C64.6064 22.5063 59.7827 26.0963 55.5103 28.3055C42.9687 34.3117 25.2589 34.5188 12.3038 29.272C7.89358 27.477 3.00098 24.3013 1.14042 19.6067C-0.306688 15.7406 1.41606 11.6674 4.31027 8.97491C10.3743 3.4519 18.0922 1.58788 26.0169 0.483282C34.6306 -0.552283 43.7267 0.345206 51.3757 3.03767C53.1673 3.58998 54.8901 4.28035 56.475 5.17784Z" fill="#2C2C2C"/>
</g>
<defs>
<clipPath id="clip0">
<rect width="256" height="33" fill="white" transform="translate(0.658203)"/>
</clipPath>
</defs>
</svg>
