<svg width="84" height="41" viewBox="0 0 84 41" fill="none" xmlns="http://www.w3.org/2000/svg">
<g clip-path="url(#clip0)">
<path d="M42.1582 0C19.2395 0 0.658203 9.18245 0.658203 20.5051C0.658203 31.8277 19.2395 41.0102 42.1582 41.0102C65.0769 41.0102 83.6582 31.8277 83.6582 20.5051C83.6582 9.18245 65.0769 0 42.1582 0ZM42.1582 38.4216C21.9517 38.4216 5.52351 30.3806 5.52351 20.5051C5.52351 10.6296 21.962 2.58862 42.1582 2.58862C62.3647 2.58862 78.7929 10.6296 78.7929 20.5051C78.7929 30.3806 62.3544 38.4216 42.1582 38.4216Z" fill="#2C2C2C"/>
<path fill-rule="evenodd" clip-rule="evenodd" d="M38.1217 11.3124H38.7945C39.0326 11.3124 39.2086 11.4959 39.2086 11.7201V30.4621C39.2086 30.7067 39.4053 30.9003 39.6537 30.9003H44.6433C44.8917 30.9003 45.0884 30.7067 45.0884 30.4621V10.4869C45.0884 10.2423 44.8917 10.0487 44.6433 10.0487H38.1217C38.0596 10.0487 38.0596 10.1099 38.0596 10.1608V11.2003C38.0596 11.2513 38.0596 11.3124 38.1217 11.3124Z" fill="#2C2C2C"/>
<path fill-rule="evenodd" clip-rule="evenodd" d="M49.3628 30.9003H54.2592C54.4972 30.9003 54.7457 30.7169 54.8492 30.4621L59.0209 17.5292C59.0209 17.5292 59.0727 17.3457 59.228 17.3457C59.3729 17.3457 59.4247 17.5292 59.4247 17.5292L63.6482 30.4621C63.7517 30.7169 64.0001 30.9003 64.2382 30.9003H69.1346C69.3106 30.9003 69.4037 30.8188 69.4555 30.7474C69.5486 30.6251 69.559 30.4621 69.5279 30.3602L62.7165 10.3443C62.613 10.0895 62.3438 10.0487 62.1265 10.0487H54.3109C54.2488 10.0487 54.197 10.0997 54.197 10.1608V11.2003C54.197 11.2513 54.2488 11.3022 54.3109 11.3022H54.8906C55.1391 11.3022 55.3047 11.4449 55.3047 11.6589C55.3047 11.7303 55.284 11.8016 55.2529 11.8933L48.9694 30.35C48.928 30.4825 48.9591 30.6251 49.0419 30.7271C49.1144 30.8494 49.2282 30.9003 49.3628 30.9003Z" fill="#2C2C2C"/>
<path fill-rule="evenodd" clip-rule="evenodd" d="M16.0617 11.3124C16.2998 11.3124 16.4758 11.4959 16.4758 11.7201V30.4621C16.4758 30.7067 16.6725 30.9003 16.9209 30.9003H21.7655C22.014 30.9003 22.2106 30.7067 22.2106 30.4621V22.5841C22.2106 22.4109 22.2935 22.309 22.428 22.309C22.5937 22.309 22.6765 22.4211 22.7386 22.5128C22.7489 22.523 22.7489 22.5332 22.7593 22.5434L28.4631 30.4315C28.6494 30.7067 28.9807 30.9105 29.2395 30.9105H34.995C35.1296 30.9105 35.2745 30.8188 35.347 30.6863C35.4194 30.5436 35.3987 30.3806 35.2952 30.2277C35.2745 30.2073 28.0801 20.179 28.0076 20.077C27.9869 20.0465 27.9765 20.0261 27.9662 20.0057C27.9455 19.9751 27.9351 19.9446 27.9248 19.914C27.9248 19.8936 27.9144 19.8732 27.9144 19.8426C27.9144 19.7611 27.9558 19.6694 27.9972 19.5777L28.0076 19.5675L34.0944 10.6908C34.1772 10.5685 34.1772 10.4054 34.0944 10.2729C34.0219 10.1404 33.8874 10.0589 33.7424 10.0589H28.2767C28.018 10.0589 27.6763 10.2627 27.49 10.5379L22.7386 17.1521C22.5937 17.3661 22.4487 17.3763 22.4177 17.3763C22.2831 17.3763 22.2003 17.2846 22.2003 17.1521V10.4971C22.2003 10.2525 22.0036 10.0589 21.7552 10.0589H15.3785C15.3164 10.0589 15.2646 10.1099 15.2646 10.171V11.2105C15.2646 11.2615 15.3164 11.3124 15.3785 11.3124H16.0617Z" fill="#2C2C2C"/>
</g>
<defs>
<clipPath id="clip0">
<rect width="83" height="41" fill="white" transform="translate(0.658203)"/>
</clipPath>
</defs>
</svg>
