<svg width="36" height="64" viewBox="0 0 36 64" fill="none" xmlns="http://www.w3.org/2000/svg">
<g clip-path="url(#clip0)">
<path fill-rule="evenodd" clip-rule="evenodd" d="M35.1356 0.521289C34.8031 0.18956 34.3518 0 33.8767 0H2.4278C1.45393 0 0.658203 0.79378 0.658203 1.76527V62.2347C0.658203 62.7086 0.848227 63.147 1.18077 63.4906C1.51331 63.8223 1.96462 64.0119 2.43968 64.0119H33.8886C34.3637 64.0119 34.8031 63.8223 35.1475 63.4906C35.4801 63.1589 35.6701 62.7086 35.6701 62.2347V1.76527C35.6582 1.29137 35.4682 0.853018 35.1356 0.521289ZM34.5299 62.3651C34.5299 62.7205 34.233 63.0167 33.8767 63.0167H2.4278C2.24965 63.0167 2.09526 62.9456 1.96462 62.8271C1.84585 62.7086 1.77459 62.5428 1.77459 62.3651V52.4843H34.5299V62.3651ZM34.5299 51.2285H1.77459V12.2147L34.5299 12.191V51.2285ZM34.5299 10.9352H1.77459V1.63495C1.77459 1.45724 1.84585 1.30322 1.96462 1.1729C2.08338 1.05442 2.24965 0.98334 2.4278 0.98334H33.8767C34.0549 0.98334 34.2093 1.05442 34.3399 1.1729C34.4587 1.29137 34.5299 1.45724 34.5299 1.63495V10.9352Z" fill="#2C2C2C"/>
<path fill-rule="evenodd" clip-rule="evenodd" d="M18.6152 9.99923C18.6746 9.84522 18.7102 9.70304 18.7221 9.43055V2.79597C18.7102 2.51163 18.6627 2.38131 18.6152 2.22729H19.6247C19.5654 2.38131 19.5297 2.52348 19.5179 2.79597V8.79079C19.5179 9.01589 19.7554 9.27654 20.2779 9.27654C20.8005 9.27654 21.62 9.27654 22.0119 9.06328L21.4418 9.98738H18.6152V9.99923Z" fill="#2C2C2C"/>
<path fill-rule="evenodd" clip-rule="evenodd" d="M23.9717 9.99923C24.0311 9.84522 24.0667 9.70304 24.0786 9.43055V2.79597C24.0667 2.51163 24.0192 2.38131 23.9717 2.22729H24.9812C24.9218 2.38131 24.8862 2.52348 24.8743 2.79597V8.79079C24.8743 9.01589 25.1118 9.27654 25.6344 9.27654C26.157 9.27654 26.9764 9.27654 27.3684 9.06328L26.7983 9.98738H23.9717V9.99923Z" fill="#2C2C2C"/>
<path fill-rule="evenodd" clip-rule="evenodd" d="M32.072 3.77934L32.4283 2.90262C32.2739 2.87893 32.072 2.81969 31.8107 2.70122C31.5613 2.59459 31.11 2.40503 30.6706 2.40503C30.2312 2.40503 29.0435 2.65383 28.9722 3.9452C28.9129 5.01147 29.6255 5.52091 29.8986 5.73417C30.2787 6.01851 31.2407 6.75305 31.6801 7.35727C32.1195 7.96149 32.3333 9.21732 30.7775 9.39503C30.243 9.39503 29.6611 9.13439 29.3285 8.92113L29.4592 10.0111C29.7798 9.95186 29.9699 10.0229 30.1005 10.0348C30.338 10.0585 30.6587 10.1296 30.9675 10.1177C31.2763 10.1059 32.8559 9.83339 32.8559 8.31691C32.8559 6.97815 31.9176 6.31469 31.5376 6.00666C31.2763 5.80525 30.3974 5.04701 30.0649 4.78637C29.8155 4.58496 29.4117 3.21066 30.6587 3.17511C31.3 3.17511 31.8582 3.64901 32.072 3.77934Z" fill="#2C2C2C"/>
<path fill-rule="evenodd" clip-rule="evenodd" d="M19.5655 61.1566C19.5774 61.441 19.6249 61.5713 19.6724 61.7253H18.6629C18.7223 61.5713 18.7579 61.4291 18.7698 61.1566V57.5905L16.6914 53.9534H17.6059L19.1855 56.7375L20.765 53.9534H21.6795L19.5536 57.6735V61.1566H19.5655Z" fill="#2C2C2C"/>
<path fill-rule="evenodd" clip-rule="evenodd" d="M32.202 56.7849H30.8243C30.5868 56.7849 30.3849 56.6901 30.3849 56.3821V55.15C30.3849 54.9249 30.6224 54.6642 31.145 54.6642C31.6675 54.6642 32.1307 54.6642 32.5226 54.8775L32.3089 53.9534H29.4941C29.5535 54.1074 29.5892 54.2496 29.601 54.5221V61.1566C29.5892 61.441 29.5416 61.5713 29.4941 61.7253H32.3089L32.8789 60.8012C32.487 61.0145 31.6557 61.0145 31.145 61.0145C30.6224 61.0145 30.3849 60.7538 30.3849 60.5287V57.9815C30.3849 57.6735 30.5868 57.5787 30.8243 57.5787H32.202V56.7849Z" fill="#2C2C2C"/>
<path fill-rule="evenodd" clip-rule="evenodd" d="M27.7602 55.2803C27.1663 54.8182 26.43 54.5931 25.6461 54.5931C23.9122 54.5931 22.5108 56.1096 22.5108 57.8275C22.5108 59.5572 23.9122 61.1211 25.6461 61.1211C26.5131 61.1211 27.297 61.0263 27.8671 60.4576L27.9027 61.4173C27.2732 61.8675 26.4894 61.8793 25.658 61.8793C23.5084 61.8793 21.7744 59.9719 21.7744 57.8393C21.7744 55.6949 23.5203 53.8467 25.658 53.8467C26.43 53.8467 27.0595 53.9534 27.6652 54.3443L27.7602 55.2803Z" fill="#2C2C2C"/>
<path fill-rule="evenodd" clip-rule="evenodd" d="M13.117 2.22729C10.9674 2.22729 9.2334 3.96887 9.2334 6.10142C9.2334 8.24581 10.9792 9.97554 13.117 9.97554C15.2667 9.97554 17.0006 8.23396 17.0006 6.10142C17.0006 3.96887 15.2548 2.22729 13.117 2.22729ZM13.117 9.22915C11.383 9.22915 9.98162 7.83115 9.98162 6.10142C9.98162 4.37169 11.383 2.97369 13.117 2.97369C14.851 2.97369 16.2524 4.37169 16.2524 6.10142C16.2405 7.83115 14.8391 9.22915 13.117 9.22915Z" fill="#2C2C2C"/>
<path fill-rule="evenodd" clip-rule="evenodd" d="M12.6053 53.9652C10.4556 53.9652 8.72168 55.7068 8.72168 57.8393C8.72168 59.9837 10.4675 61.7135 12.6053 61.7135C14.7549 61.7135 16.4889 59.9719 16.4889 57.8393C16.4889 55.6949 14.7549 53.9652 12.6053 53.9652ZM12.6053 60.9671C10.8713 60.9671 9.4699 59.5691 9.4699 57.8393C9.4699 56.1096 10.8713 54.7116 12.6053 54.7116C14.3393 54.7116 15.7407 56.1096 15.7407 57.8393C15.7407 59.5691 14.3393 60.9671 12.6053 60.9671Z" fill="#2C2C2C"/>
<path fill-rule="evenodd" clip-rule="evenodd" d="M6.02631 5.91186C5.94318 5.81708 5.95505 5.66306 6.08569 5.66306H6.45387C7.40398 5.66306 8.17596 4.89297 8.17596 3.94518C8.17596 2.99738 7.40398 2.22729 6.45387 2.22729H3.97168C4.03106 2.38131 4.06669 2.52348 4.07857 2.79597V9.43055C4.06669 9.71489 4.01919 9.84522 3.97168 9.99923H4.98118C4.9218 9.84522 4.88617 9.70304 4.87429 9.43055V6.14881C4.87429 5.90001 5.02869 5.91186 5.13558 6.05403L8.48474 9.99923H9.50612L6.02631 5.91186ZM4.86242 4.86928V2.98553H6.44199C6.96455 2.98553 7.38023 3.41204 7.38023 3.92148C7.38023 4.43092 6.95268 4.85743 6.44199 4.85743L4.86242 4.86928Z" fill="#2C2C2C"/>
<path fill-rule="evenodd" clip-rule="evenodd" d="M5.51557 57.5313C5.43243 57.4365 5.44431 57.2825 5.57495 57.2825H5.94312C6.89324 57.2825 7.66521 56.5124 7.66521 55.5646C7.66521 54.6168 6.89324 53.8467 5.94312 53.8467H3.46094C3.52032 54.0008 3.55595 54.1429 3.56783 54.4154V61.05C3.55595 61.3343 3.50844 61.4647 3.46094 61.6187H4.47044C4.41106 61.4647 4.37543 61.3225 4.36355 61.05V57.7801C4.36355 57.5313 4.51794 57.5432 4.62483 57.6853L7.974 61.6305H8.99538L5.51557 57.5313ZM4.35167 56.4887V54.6168H5.93125C6.45381 54.6168 6.86949 55.0433 6.86949 55.5528C6.86949 56.0741 6.44194 56.4887 5.93125 56.4887H4.35167Z" fill="#2C2C2C"/>
<path fill-rule="evenodd" clip-rule="evenodd" d="M19.1499 45.5891H25.3732C24.4231 45.0915 24.0787 43.7409 24.0312 42.4613C23.4136 36.6442 20.1594 32.1067 19.3756 30.9338C23.0692 28.7183 24.7081 25.3299 24.7081 22.2022C24.7081 17.0011 20.1119 14.5369 16.1214 14.5369H5.63449C6.02641 15.0937 6.31145 15.3188 6.31145 16.6102V43.1248C6.31145 44.4162 5.75325 45.0322 5.36133 45.5891H10.1238C9.73187 45.0322 9.17368 44.4162 9.17368 43.1248V33.3862C12.3922 33.3388 15.0763 32.8057 17.2259 31.9526C20.5038 35.4595 20.8958 40.5539 20.9552 41.9519C21.0027 43.3499 20.2782 44.582 19.1499 45.5891ZM9.17368 30.9811V16.3851H15.3376C19.6012 16.3851 21.0027 19.0744 20.9433 21.9297C20.6701 29.8082 12.8198 30.9811 9.17368 30.9811Z" fill="#2C2C2C"/>
<path fill-rule="evenodd" clip-rule="evenodd" d="M14.779 36.4665C16.2517 36.4428 17.6768 36.3243 18.9358 36.1111C18.7695 35.5424 18.1519 34.3102 17.8431 33.8008C16.6911 33.9904 15.6341 34.0614 14.7909 34.0614V33.4454C14.3989 33.5875 12.665 33.8363 11.9286 33.9193V46.2051C11.9286 47.4965 11.3704 48.1125 10.9785 48.6694H15.741C15.3491 48.1125 14.7909 47.4965 14.7909 46.2051V36.4665H14.779Z" fill="#2C2C2C"/>
<path fill-rule="evenodd" clip-rule="evenodd" d="M19.8269 19.3706H14.7794V29.3817C14.1381 29.6068 12.8436 30.0215 11.9172 30.1044V19.5839C11.9172 18.2925 11.6322 18.0674 11.2402 17.5106H18.2236C18.7937 17.866 19.5419 18.6716 19.8269 19.3706Z" fill="#2C2C2C"/>
<path fill-rule="evenodd" clip-rule="evenodd" d="M25.4568 21.1595C26.3119 22.1784 26.6325 23.5527 26.6088 24.9626C26.4544 29.2395 24.0791 31.5379 21.3594 32.7582C21.7632 33.3624 22.262 34.4998 22.5708 35.1159C22.642 35.0922 22.8914 34.9974 22.9627 34.9737C26.2406 38.4805 26.5494 43.5986 26.6088 44.9966C26.6682 46.3946 25.9318 47.6268 24.8154 48.6338H31.0387C30.0886 48.1244 29.7442 46.7856 29.6967 45.5061C29.0791 39.689 25.8249 35.1514 25.0411 33.9785C28.7347 31.763 30.3736 28.3747 30.3736 25.2469C30.3736 21.1359 27.4283 18.719 24.2572 17.8896C24.5066 18.3043 25.1955 19.6786 25.4568 21.1595Z" fill="#2C2C2C"/>
</g>
<defs>
<clipPath id="clip0">
<rect width="35" height="64" fill="white" transform="translate(0.658203)"/>
</clipPath>
</defs>
</svg>
