<svg width="257" height="33" fill="none" xmlns="http://www.w3.org/2000/svg"><g clip-path="url(#clip0)" fill-rule="evenodd" clip-rule="evenodd" fill="#2C2C2C"><path d="M239.982 8.354h-10.543c-1.792.138-2.274.552-2.274 2.692v5.868h12.748v-8.56h.069zm5.582-4.695V29.41h-5.582v-7.456h-12.748v7.387h-5.582V9.182c0-3.59 1.447-5.523 5.582-5.523h18.33zM216.07 9.182v13.946c0 4.418-2.48 6.213-5.581 6.213h-17.572V3.659h17.572c4.754 0 5.581 3.038 5.581 5.523zm-5.65 1.588c0-1.38-.827-2.347-2.343-2.347h-9.648v16.085h9.579c2.205-.138 2.343-1.45 2.343-2.485V10.77h.069zM79.147 3.659h5.581v10.148h12.473V3.66h5.582v25.75h-5.582V18.847H84.728v10.494h-5.581V3.659zm33.214 0l7.029 10.494 6.891-10.494h6.753L122.146 20.09v9.251h-5.581V20.09L105.539 3.659h6.822zm51.958 0h17.986c2.549 0 5.03.345 4.961 5.523v20.159h-5.582V11.046c0-2.21-.275-2.692-1.998-2.692h-9.785V29.34h-5.582V3.659zm92.339 0V29.41h-5.581V3.659h5.581zM135.79 29.341h17.986c3.583 0 5.03-1.036 4.961-6.213V3.659h-5.581v18.364c0 2.21-.276 2.485-1.999 2.485h-9.785V3.66h-5.582v25.682zm-96.06-9.044c.482 2.555-.827 4.695-1.93 6.697-1.24 1.933-3.238 3.52-5.72 3.314-5.443-.07-10.818-.898-15.78-2.417-.206-.069-.482-.207-.55-.414-.07-.276.068-.552.275-.76 4.548-3.658 9.923-5.384 15.229-7.18 1.998-.552 4.135-1.173 6.34-.897.895.138 1.791.829 2.136 1.657zM58.405 9.39c2.55 2.071 4.823 4.97 4.065 8.423-1.24 5.108-6.822 7.801-11.232 9.527-2.412.828-4.824 1.657-7.442 1.864-.138 0-.414 0-.483-.207l.07-.276c3.72-4.212 6.546-8.906 9.026-13.739 1.172-2.14 2.205-4.35 3.17-6.558.138-.138.276-.277.483-.277.964.07 1.585.76 2.343 1.243zM22.64 4.004l-.069.276c-5.375 6.145-8.958 13.256-12.335 20.366-.689.622-1.309-.207-1.86-.483-3.032-1.933-5.72-5.109-4.962-8.906 1.24-4.901 6.34-7.594 10.544-9.32 2.48-.966 5.099-1.726 7.855-2.14.276 0 .69-.069.827.207zm26.737.967c.276.138.69.207.827.552.138.345-.138.552-.344.828-4.204 3.314-9.027 5.178-13.989 6.766-2.55.621-5.1 1.726-7.856 1.105-.689-.138-1.24-.622-1.654-1.243-.689-1.933.276-3.935 1.034-5.661 1.103-2.14 3.032-4.626 5.65-4.626 5.79 0 11.233.829 16.332 2.279zm7.098.207c4.341 2.416 9.303 6.558 8.752 12.15-.62 5.178-5.444 8.768-9.717 10.977-12.541 6.007-30.251 6.214-43.206.967C7.894 27.477 3 24.302 1.14 19.607c-1.447-3.866.276-7.94 3.17-10.632C10.374 3.452 18.092 1.588 26.017.483 34.63-.552 43.727.345 51.376 3.038c1.791.552 3.514 1.242 5.099 2.14z"/></g><defs><clipPath id="clip0"><path fill="#fff" transform="translate(.658)" d="M0 0h256v33H0z"/></clipPath></defs></svg>