<svg width="84" height="41" fill="none" xmlns="http://www.w3.org/2000/svg"><g clip-path="url(#clip0)" fill="#2C2C2C"><path d="M42.158 0C19.24 0 .658 9.182.658 20.505c0 11.323 18.581 20.505 41.5 20.505s41.5-9.182 41.5-20.505C83.658 9.182 65.077 0 42.158 0zm0 38.422c-20.206 0-36.634-8.041-36.634-17.917 0-9.875 16.438-17.916 36.634-17.916 20.207 0 36.635 8.04 36.635 17.916 0 9.876-16.439 17.917-36.635 17.917z"/><path fill-rule="evenodd" clip-rule="evenodd" d="M38.122 11.312h.672c.239 0 .415.184.415.408v18.742c0 .245.196.438.445.438h4.99a.438.438 0 00.444-.438V10.487a.438.438 0 00-.445-.438h-6.521c-.062 0-.062.06-.062.112v1.04c0 .05 0 .111.062.111zM49.363 30.9h4.896c.238 0 .487-.183.59-.438l4.172-12.933s.052-.183.207-.183c.145 0 .197.183.197.183l4.223 12.933c.104.255.352.438.59.438h4.897a.37.37 0 00.32-.153.457.457 0 00.073-.387l-6.812-20.016c-.103-.255-.372-.295-.59-.295h-7.815a.114.114 0 00-.114.112v1.04c0 .05.052.101.114.101h.58c.248 0 .414.143.414.357a.739.739 0 01-.052.234L48.969 30.35a.409.409 0 00.073.377.349.349 0 00.32.173zM16.062 11.312c.238 0 .414.184.414.408v18.742c0 .245.197.438.445.438h4.845a.438.438 0 00.445-.438v-7.878c0-.173.083-.275.217-.275.166 0 .248.112.31.204.01.01.01.02.021.03l5.704 7.889c.186.275.518.479.776.479h5.756c.135 0 .28-.092.352-.225.072-.142.052-.305-.052-.458-.02-.02-7.215-10.049-7.287-10.151a.57.57 0 01-.042-.071.357.357 0 01-.041-.092c0-.02-.01-.04-.01-.071a.69.69 0 01.082-.265l.01-.01 6.087-8.877a.382.382 0 000-.418.403.403 0 00-.352-.214h-5.465c-.259 0-.6.204-.787.479l-4.751 6.614c-.145.214-.29.224-.321.224-.135 0-.218-.091-.218-.224v-6.655a.438.438 0 00-.445-.438H15.38a.114.114 0 00-.114.112v1.04c0 .05.051.101.114.101h.683z"/></g><defs><clipPath id="clip0"><path fill="#fff" transform="translate(.658)" d="M0 0h83v41H0z"/></clipPath></defs></svg>