<svg width="36" height="64" fill="none" xmlns="http://www.w3.org/2000/svg"><g clip-path="url(#clip0)" fill-rule="evenodd" clip-rule="evenodd" fill="#2C2C2C"><path d="M35.136.521A1.782 1.782 0 0033.876 0H2.429C1.454 0 .658.794.658 1.765v60.47a1.782 1.782 0 001.781 1.777h31.45c.475 0 .914-.19 1.258-.521.333-.332.523-.782.523-1.256V1.765a1.808 1.808 0 00-.534-1.244zm-.606 61.844a.658.658 0 01-.653.652H2.427a.678.678 0 01-.462-.19.653.653 0 01-.19-.462v-9.88H34.53v9.88zm0-11.137H1.775V12.215l32.755-.024v39.037zm0-40.293H1.775v-9.3c0-.178.07-.332.19-.462a.656.656 0 01.463-.19h31.449c.178 0 .332.071.463.19a.65.65 0 01.19.462v9.3z"/><path d="M18.615 10a1.61 1.61 0 00.107-.57V2.797c-.012-.284-.06-.415-.107-.569h1.01a1.61 1.61 0 00-.107.569v5.995c0 .225.237.486.76.486s1.342 0 1.734-.214l-.57.924h-2.827V10zm5.357 0a1.61 1.61 0 00.107-.57V2.797c-.012-.284-.06-.415-.107-.569h1.01a1.61 1.61 0 00-.108.569v5.995c0 .225.238.486.76.486.523 0 1.342 0 1.734-.214l-.57.924h-2.826V10zm8.1-6.22l.356-.877a2.424 2.424 0 01-.617-.202c-.25-.106-.701-.296-1.14-.296-.44 0-1.627.249-1.699 1.54-.06 1.066.653 1.576.927 1.79.38.284 1.342 1.018 1.781 1.622.44.604.653 1.86-.902 2.038-.535 0-1.117-.26-1.45-.474l.131 1.09c.32-.06.51.012.642.024.237.024.558.095.867.083.308-.012 1.888-.285 1.888-1.801 0-1.339-.938-2.002-1.318-2.31-.262-.202-1.14-.96-1.473-1.22-.25-.202-.653-1.576.594-1.612.641 0 1.2.474 1.413.604zM19.566 61.157c.011.284.059.414.106.568h-1.01a1.61 1.61 0 00.108-.568V57.59l-2.079-3.638h.915l1.58 2.784 1.579-2.784h.915l-2.126 3.72v3.484h.012zm12.636-4.372h-1.378c-.237 0-.44-.095-.44-.403V55.15c0-.225.238-.486.761-.486s.986 0 1.378.213l-.214-.924h-2.815c.06.154.095.297.107.57v6.634c-.012.284-.06.414-.107.568h2.815l.57-.924c-.392.213-1.223.213-1.734.213-.523 0-.76-.26-.76-.485V57.98c0-.308.202-.402.44-.402h1.377v-.794zM27.76 55.28c-.594-.462-1.33-.687-2.114-.687-1.734 0-3.135 1.517-3.135 3.234 0 1.73 1.401 3.294 3.135 3.294.867 0 1.651-.095 2.221-.663l.036.96c-.63.45-1.414.461-2.245.461-2.15 0-3.884-1.907-3.884-4.04 0-2.144 1.746-3.992 3.884-3.992.772 0 1.401.106 2.007.497l.095.936zM13.117 2.227a3.88 3.88 0 00-3.884 3.874 3.88 3.88 0 003.884 3.875A3.88 3.88 0 0017.001 6.1c0-2.132-1.746-3.874-3.884-3.874zm0 7.002a3.129 3.129 0 110-6.255A3.129 3.129 0 0116.252 6.1a3.144 3.144 0 01-3.135 3.128zm-.512 44.736a3.88 3.88 0 00-3.883 3.874 3.88 3.88 0 003.883 3.875 3.88 3.88 0 003.884-3.875 3.873 3.873 0 00-3.884-3.874zm0 7.002a3.129 3.129 0 110-6.255 3.129 3.129 0 110 6.255zM6.026 5.912c-.083-.095-.07-.249.06-.249h.368c.95 0 1.722-.77 1.722-1.718s-.772-1.718-1.722-1.718H3.972c.06.154.095.296.107.569v6.635c-.012.284-.06.414-.107.568h1.01a1.61 1.61 0 01-.108-.568V6.149c0-.249.155-.237.262-.095l3.349 3.945h1.021l-3.48-4.087zM4.862 4.869V2.986h1.58a.94.94 0 01.938.935c0 .51-.427.936-.938.936l-1.58.012zm.654 52.662c-.084-.094-.072-.248.059-.248h.368c.95 0 1.722-.77 1.722-1.718s-.772-1.718-1.722-1.718H3.461c.06.154.095.296.107.568v6.635c-.012.284-.06.415-.107.569h1.01a1.61 1.61 0 01-.107-.569v-3.27c0-.249.154-.237.26-.095l3.35 3.945h1.021l-3.48-4.099zM4.352 56.49v-1.872h1.58a.94.94 0 01.937.936.939.939 0 01-.938.936h-1.58zm14.798-10.9h6.223c-.95-.498-1.294-1.85-1.342-3.129-.617-5.817-3.872-10.354-4.655-11.527 3.693-2.216 5.332-5.604 5.332-8.732 0-5.2-4.596-7.665-8.587-7.665H5.634c.392.557.677.782.677 2.073v26.515c0 1.291-.558 1.907-.95 2.464h4.763c-.392-.557-.95-1.173-.95-2.464v-9.739c3.218-.047 5.902-.58 8.052-1.433 3.278 3.506 3.67 8.6 3.73 9.999.047 1.398-.678 2.63-1.806 3.637zM9.174 30.98V16.385h6.164c4.263 0 5.665 2.69 5.605 5.545-.273 7.878-8.123 9.051-11.77 9.051z"/><path d="M14.779 36.467c1.473-.024 2.898-.143 4.157-.356-.166-.569-.784-1.8-1.093-2.31-1.152.19-2.209.26-3.052.26v-.616c-.392.142-2.126.391-2.862.474v12.286c0 1.291-.559 1.907-.95 2.464h4.762c-.392-.556-.95-1.172-.95-2.464v-9.738h-.012zm5.048-17.097h-5.048v10.012c-.64.225-1.935.64-2.862.722v-10.52c0-1.291-.285-1.517-.677-2.073h6.984c.57.355 1.318 1.16 1.603 1.86zm5.63 1.79c.855 1.018 1.175 2.393 1.152 3.803-.155 4.276-2.53 6.575-5.25 7.795.404.604.903 1.742 1.212 2.358.071-.024.32-.119.392-.142 3.278 3.507 3.586 8.625 3.646 10.023.06 1.398-.677 2.63-1.794 3.637h6.224c-.95-.51-1.295-1.848-1.342-3.128-.618-5.817-3.872-10.355-4.656-11.528 3.694-2.215 5.333-5.603 5.333-8.731 0-4.111-2.946-6.528-6.117-7.357.25.414.938 1.789 1.2 3.27z"/></g><defs><clipPath id="clip0"><path fill="#fff" transform="translate(.658)" d="M0 0h35v64H0z"/></clipPath></defs></svg>