<svg width="18" height="14" fill="none" xmlns="http://www.w3.org/2000/svg"><path d="M17.25 6H.75c-.199 0-.39.105-.53.293A1.19 1.19 0 000 7c0 .265.079.52.22.707.14.188.33.293.53.293h16.5c.199 0 .39-.105.53-.293.141-.187.22-.442.22-.707 0-.265-.079-.52-.22-.707-.14-.188-.331-.293-.53-.293zM.75 2h16.5c.199 0 .39-.105.53-.293.141-.187.22-.442.22-.707 0-.265-.079-.52-.22-.707C17.64.105 17.45 0 17.25 0H.75C.551 0 .36.105.22.293A1.19 1.19 0 000 1c0 .265.079.52.22.707.14.188.33.293.53.293zm16.5 10H.75c-.199 0-.39.105-.53.293A1.19 1.19 0 000 13c0 .265.079.52.22.707.14.188.331.293.53.293h16.5c.199 0 .39-.105.53-.293.141-.187.22-.442.22-.707 0-.265-.079-.52-.22-.707-.14-.188-.331-.293-.53-.293z" fill="#fff"/></svg>