<svg width="36" height="36" fill="none" xmlns="http://www.w3.org/2000/svg"><g clip-path="url(#clip0)" fill="#fff"><path d="M0 0l10.34 8.063v2.472L0 2.59v4.335l10.34 7.789v2.59L0 9.514v3.924l6.617 5.002v2.217L0 15.793v4.355l6.755 5.101.079 2.295L0 22.581v4.179L12.131 36H36V0H0zm34.326 34.234H15.184l-7.661-6.376h9.532l5.632 4.434 3.17-2.256v-3.865c-.748 0-1.457.628-1.457.628h-5.868c1.004 0 2.639-2.178 2.639-2.178.67.667 1.91.628 1.91.628.788-.785 1.95-1.275 1.95-1.275 2.068 0 2.6-2.472 2.6-2.472l-2.916-2.217h5.022l-7.7-6.043V10.3L10.91 1.923h23.416v32.311zM13.845 11.751h5.317v4.042l-5.317-4.041z"/><path d="M32.573 2.943v5.513h-5.691V2.943l1.89 1.981.946-1.981 1.181 1.981 1.674-1.981zM9.04 36H0v-7.102L9.04 36z"/></g><defs><clipPath id="clip0"><path fill="#fff" d="M0 0h36v36H0z"/></clipPath></defs></svg>