<svg width="20" height="20" fill="none" xmlns="http://www.w3.org/2000/svg"><path d="M8.959 18.333H4.098a1.738 1.738 0 01-1.737-1.736V8.513a1.648 1.648 0 01-.493-2.131 176.95 176.95 0 012.267-3.927 1.647 1.647 0 011.42-.788c.353.003.697.115.984.32l.02.013c.343.2 3.66 2.174 6.325 3.76l2.366 1.407.109.064a309.602 309.602 0 012.287 1.357c.68.481.89 1.398.486 2.127a177.08 177.08 0 01-2.268 3.927 1.653 1.653 0 01-1.4.792c-.112 0-.223-.012-.333-.037-.097.057-.63.4-1.306.833-1.202.77-2.845 1.825-3.035 1.922a1.646 1.646 0 01-.831.181zM3.75 10.858v5.739c0 .192.156.347.348.347h3.186a397.989 397.989 0 01-3.534-6.086zm1.132-.833c.333.572 3.93 6.777 3.96 6.818a.25.25 0 00.316.069c.112-.064 3.495-2.237 3.528-2.259-.261-.154-2.155-1.282-4.16-2.476L4.866 10l.005.01.009.013v.005l.002-.003zm.395-6.775c-.673 1.083-2.18 3.773-2.2 3.823a.26.26 0 00.103.321c.111.066 11.129 6.63 11.234 6.647a.267.267 0 00.04 0 .26.26 0 00.221-.124c.679-1.14 2.241-3.881 2.245-3.89a.263.263 0 00-.104-.322c-.106-.063-11.102-6.598-11.173-6.63a.262.262 0 00-.32.098l-.005.01-.007.01-.01.017v.004l-.012.02-.013.016h.001zm1.128 4.575a1.388 1.388 0 111.389-1.392 1.39 1.39 0 01-1.39 1.39v.002z" fill="#fff" opacity=".5"/></svg>