<svg width="24" height="24" fill="none" xmlns="http://www.w3.org/2000/svg"><path fill-rule="evenodd" clip-rule="evenodd" d="M16.723.359H7.221A7.012 7.012 0 00.217 7.363v9.502A7.012 7.012 0 007.22 23.87h9.502a7.012 7.012 0 007.004-7.004V7.363A7.012 7.012 0 0016.723.359zm4.64 16.506a4.639 4.639 0 01-4.64 4.64H7.222a4.639 4.639 0 01-4.638-4.64V7.363A4.639 4.639 0 017.22 2.724h9.503a4.639 4.639 0 014.639 4.639v9.502zm-15.47-4.75a6.087 6.087 0 016.08-6.08 6.087 6.087 0 016.08 6.08 6.087 6.087 0 01-6.08 6.08 6.088 6.088 0 01-6.08-6.08zm6.08 3.714a3.715 3.715 0 11-.001-7.43 3.715 3.715 0 010 7.43zm7.549-9.75a1.457 1.457 0 11-2.915 0 1.457 1.457 0 012.915 0z" fill="#666"/></svg>