<svg width="27" height="22" fill="none" xmlns="http://www.w3.org/2000/svg"><path fill-rule="evenodd" clip-rule="evenodd" d="M23.54 3.88A5.352 5.352 0 0025.873.927a10.558 10.558 0 01-3.37 1.295A5.28 5.28 0 0018.63.534c-2.93 0-5.307 2.391-5.307 5.342 0 .42.049.827.138 1.218-4.409-.222-8.317-2.35-10.934-5.582a5.332 5.332 0 00-.718 2.686c0 1.853.937 3.488 2.36 4.445a5.234 5.234 0 01-2.403-.668v.068a5.335 5.335 0 004.256 5.238 5.264 5.264 0 01-2.397.09c.676 2.122 2.636 3.667 4.957 3.71a10.612 10.612 0 01-6.59 2.286c-.428 0-.851-.024-1.266-.074a14.939 14.939 0 008.133 2.4c9.759 0 15.096-8.139 15.096-15.198 0-.232-.006-.46-.015-.69a10.825 10.825 0 002.647-2.765 10.64 10.64 0 01-3.048.84z" fill="#666"/></svg>