<svg width="24" height="24" viewBox="0 0 24 24" fill="none" xmlns="http://www.w3.org/2000/svg">
<path fill-rule="evenodd" clip-rule="evenodd" d="M16.7232 0.358887H7.22061C3.35869 0.358887 0.216797 3.50078 0.216797 7.3627V16.8653C0.216797 20.7272 3.35869 23.8691 7.22061 23.8691H16.7232C20.5851 23.8691 23.727 20.7272 23.727 16.8653V7.3627C23.727 3.50078 20.5851 0.358887 16.7232 0.358887ZM21.3625 16.8654C21.3625 19.4272 19.2857 21.5041 16.7238 21.5041H7.22127C4.65942 21.5041 2.58258 19.4272 2.58258 16.8654V7.36281C2.58258 4.80091 4.65942 2.72412 7.22127 2.72412H16.7238C19.2857 2.72412 21.3625 4.80091 21.3625 7.36281V16.8654ZM5.89276 12.1147C5.89276 8.76192 8.6205 6.03418 11.9733 6.03418C15.3262 6.03418 18.0539 8.76188 18.0539 12.1147C18.0539 15.4675 15.3262 18.1953 11.9733 18.1953C8.6205 18.1953 5.89276 15.4675 5.89276 12.1147ZM11.9722 15.8293C9.92016 15.8293 8.25671 14.1659 8.25671 12.1139C8.25671 10.0619 9.9202 8.39844 11.9722 8.39844C14.0242 8.39844 15.6876 10.0619 15.6876 12.1139C15.6876 14.1658 14.0241 15.8293 11.9722 15.8293ZM19.522 6.07935C19.522 6.88419 18.8696 7.53664 18.0647 7.53664C17.2599 7.53664 16.6075 6.88419 16.6075 6.07935C16.6075 5.27452 17.2599 4.62207 18.0647 4.62207C18.8696 4.62207 19.522 5.27452 19.522 6.07935Z" fill="#666666"/>
</svg>
