<svg width="27" height="22" viewBox="0 0 27 22" fill="none" xmlns="http://www.w3.org/2000/svg">
<path fill-rule="evenodd" clip-rule="evenodd" d="M23.5404 3.88059C24.6358 3.21856 25.4771 2.17262 25.8727 0.925653C24.8473 1.5378 23.7123 1.98218 22.5028 2.22099C21.5351 1.1826 20.1567 0.53418 18.6307 0.53418C15.7005 0.53418 13.324 2.92534 13.324 5.87574C13.324 6.29593 13.3727 6.70252 13.4624 7.09399C9.05334 6.87181 5.14479 4.74365 2.52793 1.51211C2.06998 2.3011 1.80982 3.21856 1.80982 4.198C1.80982 6.05107 2.74702 7.68649 4.16955 8.64326C3.2993 8.61605 2.48077 8.37573 1.76722 7.97519C1.76722 7.99786 1.76722 8.02053 1.76722 8.0432C1.76722 10.6309 3.59445 12.7892 6.02265 13.2805C5.57687 13.4029 5.1098 13.4679 4.62446 13.4679C4.28366 13.4679 3.95047 13.4346 3.6264 13.3712C4.30192 15.4933 6.26152 17.038 8.58321 17.0818C6.76663 18.5132 4.4784 19.3672 1.99239 19.3672C1.56487 19.3672 1.14191 19.343 0.726562 19.2931C3.07413 20.8091 5.8629 21.6934 8.86011 21.6934C18.6186 21.6934 23.9557 13.5541 23.9557 6.49545C23.9557 6.26268 23.9496 6.03445 23.9405 5.8047C24.9766 5.05199 25.8773 4.11034 26.5878 3.04021C25.6369 3.46342 24.613 3.75061 23.5404 3.88059Z" fill="#666666"/>
</svg>
