<svg width="20" height="20" viewBox="0 0 20 20" fill="none" xmlns="http://www.w3.org/2000/svg">
<g opacity="0.5">
<path d="M8.9587 18.3333H4.09787C3.13911 18.3324 2.36212 17.5554 2.3612 16.5966V8.5133C1.68055 8.03028 1.46862 7.11457 1.86787 6.38163C2.61787 5.04163 3.38287 3.7208 4.13537 2.45497C4.43717 1.9608 4.97635 1.66147 5.55537 1.66657C5.9083 1.67015 6.25161 1.78216 6.5387 1.98747L6.5587 1.99997C6.90204 2.19997 10.2187 4.17413 12.8845 5.75997L15.2504 7.16663L15.3587 7.2308C17.207 8.3233 17.6229 8.57163 17.6462 8.58747C18.3266 9.06922 18.5359 9.98561 18.132 10.715C17.3962 12.0291 16.632 13.35 15.8645 14.6416C15.5666 15.1305 15.037 15.4303 14.4645 15.4341C14.3524 15.4342 14.2406 15.4216 14.1312 15.3966C14.0345 15.4541 13.5012 15.7966 12.8254 16.23C11.6229 17.0008 9.97954 18.055 9.78953 18.1525C9.53318 18.2844 9.2467 18.3468 8.9587 18.3333ZM3.75037 10.8583V16.5966C3.75037 16.7886 3.90595 16.9441 4.09787 16.9441H7.2837C6.07287 14.9 4.88454 12.8516 3.75037 10.8583ZM4.88204 10.025C5.21537 10.5975 8.81203 16.8016 8.84203 16.8433C8.88941 16.9048 8.9627 16.9409 9.04037 16.9408C9.08133 16.9408 9.12168 16.9308 9.15787 16.9116C9.27037 16.8483 12.6529 14.675 12.6862 14.6533C12.4245 14.4991 10.5312 13.3708 8.5262 12.1766L4.86537 9.99997L4.8712 10.0091L4.87954 10.0233V10.0283L4.88204 10.025ZM5.27704 3.24997C4.6037 4.3333 3.09704 7.0233 3.07704 7.07247C3.02763 7.19051 3.07146 7.32695 3.18037 7.39413C3.2912 7.45997 14.3087 14.0241 14.4137 14.0408C14.427 14.0418 14.4404 14.0418 14.4537 14.0408C14.5442 14.0411 14.6283 13.994 14.6754 13.9166C15.3537 12.7775 16.9162 10.0358 16.9204 10.0275C16.9686 9.90894 16.9247 9.77287 16.8162 9.70497C16.7104 9.64163 5.7137 3.10663 5.64287 3.0758C5.61068 3.06224 5.57613 3.05516 5.5412 3.05497C5.45345 3.05544 5.37177 3.09988 5.3237 3.1733L5.31787 3.1833L5.3112 3.1933L5.3012 3.20997V3.21413L5.2887 3.23413L5.2762 3.24997H5.27704ZM6.40454 7.82497C5.63832 7.8245 5.01734 7.2034 5.01704 6.43719C5.01673 5.67097 5.63722 5.04937 6.40343 5.0483C7.16964 5.04723 7.79186 5.66709 7.7937 6.4333C7.79278 7.20014 7.17137 7.82155 6.40454 7.82247V7.82497Z" fill="white"/>
</g>
</svg>
