<svg width="18" height="18" viewBox="0 0 18 18" fill="none" xmlns="http://www.w3.org/2000/svg">
<path fill-rule="evenodd" clip-rule="evenodd" d="M15.2335 2.70419C15.0533 2.17275 14.5489 1.79443 13.9544 1.79443H4.04618C3.45169 1.79443 2.95627 2.17275 2.76712 2.70419L0.893555 8.09968V15.3057C0.893555 15.8011 1.29889 16.2064 1.7943 16.2064H2.69506C3.19047 16.2064 3.59581 15.8011 3.59581 15.3057V14.4049H14.4048V15.3057C14.4048 15.8011 14.8101 16.2064 15.3056 16.2064H16.2063C16.7017 16.2064 17.1071 15.8011 17.1071 15.3057V8.09968L15.2335 2.70419ZM4.04607 11.7027C3.29844 11.7027 2.69494 11.0992 2.69494 10.3516C2.69494 9.60396 3.29844 9.00046 4.04607 9.00046C4.79369 9.00046 5.39719 9.60396 5.39719 10.3516C5.39719 11.0992 4.79369 11.7027 4.04607 11.7027ZM13.9544 11.7027C13.2067 11.7027 12.6032 11.0992 12.6032 10.3516C12.6032 9.60396 13.2067 9.00046 13.9544 9.00046C14.702 9.00046 15.3055 9.60396 15.3055 10.3516C15.3055 11.0992 14.702 11.7027 13.9544 11.7027ZM2.69494 7.19893L4.04607 3.14556H13.9543L15.3054 7.19893H2.69494Z" fill="white"/>
</svg>
